<svg xmlns="http://www.w3.org/2000/svg"  viewBox="0 0 48 48" width="96px" height="96px"><path fill="#0883d9" d="M35,8.015C30.006,5.992,29,4,24,4s-6.006,1.992-11,4.015c-2.202,0.892-4.261,1.027-5.985,1.028 C5.905,9.043,5,9.931,5,11.041l0,9.019c0,11.727,14.009,21.222,17.969,23.63c0.637,0.387,1.426,0.387,2.063,0 C28.991,41.282,43,31.787,43,20.06l0-9.019c0-1.11-0.905-1.998-2.015-1.998C39.261,9.042,37.202,8.907,35,8.015z"/><rect width="16" height="11" x="16" y="20" fill="none" stroke="#fff" stroke-miterlimit="10" stroke-width="2"/><path fill="none" stroke="#fff" stroke-miterlimit="10" stroke-width="2" d="M29,20H19v-5c0-2.761,2.239-5,5-5h0 c2.761,0,5,2.239,5,5V20z"/></svg>