<?xml version="1.0" encoding="utf-8"?>
<!-- Generator: Adobe Illustrator 23.0.2, SVG Export Plug-In . SVG Version: 6.00 Build 0)  -->
<svg version="1.1" id="Layer_1" xmlns="http://www.w3.org/2000/svg" xmlns:xlink="http://www.w3.org/1999/xlink" x="0px" y="0px"
	 viewBox="0 0 64 64" style="enable-background:new 0 0 64 64;" xml:space="preserve">
<style type="text/css">
	.st0{fill:#28A8EA;}
	.st1{fill:#0078D4;}
	.st2{fill:#0358A7;}
	.st3{opacity:0.1;}
	.st4{opacity:0.2;}
	.st5{fill:#F9F7F7;}
	.st6{fill:none;}
</style>
<g id="_x33_2_7_">
	<path class="st0" d="M28.55,25.72c-0.12-0.13-0.15-0.33-0.06-0.49c0.02-0.03,0.04-0.06,0.06-0.08l8.53-8.54
		c0.33-0.34,0.88-0.32,1.2,0.02c2.4,2.6,4.26,5.83,5.25,9.55c0,0,0,0,0,0L38.38,32l-7.68-2.4c-0.11-0.4-0.24-0.8-0.41-1.18
		C29.87,27.42,29.29,26.51,28.55,25.72z"/>
	<path class="st1" d="M47.63,25.96c-0.11-0.46-0.57-0.73-1.03-0.61L30.7,29.6c0.41,1.53,0.44,3.22,0,4.83l5.3,6.61l7.55-3.15
		l3.04,0.82c0.45,0.12,0.92-0.15,1.03-0.61C48.54,34.17,48.56,29.96,47.63,25.96z"/>
	<path class="st2" d="M30.7,34.43c-0.39,1.45-1.12,2.77-2.13,3.87c-0.07,0.07-0.12,0.18-0.12,0.29c0,0.12,0.05,0.22,0.12,0.29
		l8.52,8.51c0.33,0.33,0.88,0.32,1.2-0.02c2.53-2.73,4.31-5.99,5.25-9.49L30.7,34.43z"/>
	<path class="st3" d="M35,40.67V24.33C35,23.6,34.4,23,33.67,23h-2.99l-2.12,2.12c-0.02,0.02-0.05,0.05-0.06,0.08
		c-0.09,0.16-0.07,0.36,0.06,0.49c0.74,0.79,1.32,1.7,1.74,2.7c0.16,0.39,0.3,0.78,0.41,1.18l0,0l0,0c0.21,0.78,0.32,1.6,0.32,2.42
		c0,0.82-0.11,1.63-0.32,2.41c-0.11,0.41-0.25,0.81-0.41,1.21c-0.42,0.98-0.99,1.88-1.71,2.67c-0.07,0.07-0.12,0.18-0.12,0.29
		c0,0.12,0.05,0.22,0.12,0.29L31.72,42h1.95C34.4,42,35,41.4,35,40.67z"/>
	<path class="st4" d="M34,41.67V25.33C34,24.6,33.4,24,32.67,24h-2.99l-1.12,1.12c-0.02,0.02-0.05,0.05-0.06,0.08
		c-0.09,0.16-0.07,0.36,0.06,0.49c0.74,0.79,1.32,1.7,1.74,2.7c0.16,0.39,0.3,0.78,0.41,1.18l0,0l0,0c0.21,0.78,0.32,1.6,0.32,2.42
		c0,0.82-0.11,1.63-0.32,2.41c-0.11,0.41-0.25,0.81-0.41,1.21c-0.42,0.98-0.99,1.88-1.71,2.67c-0.07,0.07-0.12,0.18-0.12,0.29
		c0,0.12,0.05,0.22,0.12,0.29L32.72,43C33.43,42.97,34,42.38,34,41.67z"/>
	<path class="st4" d="M34,39.67V25.33C34,24.6,33.4,24,32.67,24h-2.99l-1.12,1.12c-0.02,0.02-0.05,0.05-0.06,0.08
		c-0.09,0.16-0.07,0.36,0.06,0.49c0.74,0.79,1.32,1.7,1.74,2.7c0.16,0.39,0.3,0.78,0.41,1.18l0,0l0,0c0.21,0.78,0.32,1.6,0.32,2.42
		c0,0.82-0.11,1.63-0.32,2.41c-0.11,0.41-0.25,0.81-0.41,1.21c-0.42,0.98-0.99,1.88-1.71,2.67c-0.07,0.07-0.12,0.18-0.12,0.29
		c0,0.12,0.05,0.22,0.12,0.29L30.71,41h1.95C33.4,41,34,40.4,34,39.67z"/>
	<path class="st4" d="M33,39.67V25.33C33,24.6,32.4,24,31.67,24h-1.99l-1.12,1.12c-0.02,0.02-0.05,0.05-0.06,0.08
		c-0.09,0.16-0.07,0.36,0.06,0.49c0.74,0.79,1.32,1.7,1.74,2.7c0.16,0.39,0.3,0.78,0.41,1.18l0,0l0,0c0.21,0.78,0.32,1.6,0.32,2.42
		c0,0.82-0.11,1.63-0.32,2.41c-0.11,0.41-0.25,0.81-0.41,1.21c-0.42,0.98-0.99,1.88-1.71,2.67c-0.07,0.07-0.12,0.18-0.12,0.29
		c0,0.12,0.05,0.22,0.12,0.29L30.71,41h0.95C32.4,41,33,40.4,33,39.67z"/>
	<path id="Back_Plate_10_" class="st1" d="M31.67,40H18.33C17.6,40,17,39.4,17,38.67V25.33C17,24.6,17.6,24,18.33,24h13.33
		C32.4,24,33,24.6,33,25.33v13.33C33,39.4,32.4,40,31.67,40z"/>
	<g>
		<path class="st5" d="M24.83,31.35c0.07,0.13,0.14,0.33,0.22,0.6h0.02c0.07-0.24,0.14-0.44,0.22-0.59l2.03-3.82
			c0.15-0.29,0.46-0.47,0.79-0.47h0c0.69,0,1.12,0.74,0.77,1.34l-2.81,4.89c-0.08,0.14-0.12,0.29-0.12,0.44v2.47
			c0,0.49-0.4,0.89-0.89,0.89h-0.18c-0.49,0-0.89-0.4-0.89-0.89v-2.45c0-0.15-0.04-0.3-0.11-0.44l-2.76-4.94
			c-0.33-0.6,0.1-1.33,0.78-1.33h0.18c0.33,0,0.64,0.19,0.79,0.48L24.83,31.35z"/>
	</g>
	<rect x="17" y="16" class="st6" width="32" height="32"/>
</g>
</svg>
